#!OML:ASF F:\VICON\USERDATA\INSTALL\rory3\rory3.ASF
:FULLY-SPECIFIED
:DEGREES
69
root 0.2648563162903964 17.610023551445863 37.11876278233025 -0.9034712589858047 -6.516546903812965 -7.27847384249894
lfemur -23.107197188519166 -4.573318928959782 -9.806573109488932
ltibia 18.100823326864433
lfoot -3.1291917830112044 4.5796448052614425
ltoes -1.4470705858212791
rfemur 10.184900849128061 6.375690082079294 34.0185373843414
rtibia 28.103441624833216
rfoot -18.235279560368657 -2.8717280109935226
rtoes -4.456950460985452
lowerback 8.841628164888593 3.0520829584538727 7.034655558309765
upperback 0.35159049780934215 4.858241762567886 1.9539942658263527
thorax -4.434691148444326 2.2815012916229924 -2.196315169697827
lowerneck -16.99120050183301 -3.0602458531703567 -1.5752491392477759
upperneck 20.298206546350755 -4.063932059043489 1.4693067942280644
head 9.182766685197942 -1.8826763723526647 0.25183475981133896
lclavicle -2.134678138719353e-15 2.5959337979502744e-17
lhumerus -36.72743176753635 10.327356270126657 80.46333968306257
lradius 17.204982717966402
lwrist -0.6851917365161304
lhand -26.50794151341574 24.372514883186923
lfingers 7.1250199999999975
lthumb 0.05521314939432598 54.35010258892326
rclavicle -2.134678138719353e-15 2.5959337979502744e-17
rhumerus -22.429877509665204 -11.072344376194017 -81.6238833750111
rradius 29.148448766986355
rwrist 1.9131970354526162
rhand -18.215272993144072 24.040429137586738
rfingers 7.1250199999999975
rthumb 8.062469261026385 -5.708418190737018
70
root 0.38168266975902665 17.611916331081158 38.11987528982847 -1.5140997273012724 -6.214832953488258 -6.064392131499682
lfemur -22.37193170456011 -3.633667581970446 -12.216599573373628
ltibia 22.818936464171927
lfoot -2.2292034981364988 1.3805284508736702
ltoes 0.010900859480676761
rfemur 9.961345444906145 5.634842113171966 31.92020434502988
rtibia 34.84837734561229
rfoot -10.531839968903752 -0.06826309661020069
rtoes -4.30472714810076
lowerback 8.779004435850094 3.112278338548219 6.20738806236975
upperback 0.3432599725683468 4.825768577060948 1.6265722973590777
thorax -4.4359590459633464 2.2814618166904705 -2.0152799802529167
lowerneck -16.80186559937299 -3.173778108318522 -1.6069256807143701
upperneck 20.519835567588668 -4.2226247100382714 1.5940028410088067
head 9.244621635898735 -1.9483097492640349 0.27203100286726223
lclavicle -1.9064805658992305e-15 1.7816437357311783e-16
lhumerus -37.46935869702346 11.716612280337278 79.64583398920477
lradius 16.052575722048292
lwrist -1.8974454186123442
lhand -25.587463066854646 24.916638917297647
lfingers 7.1250199999999975
lthumb 0.9441677527265947 54.892512758442415
rclavicle -1.9064805658992305e-15 1.7816437357311783e-16
rhumerus -23.085205744127506 -12.319457275624934 -81.48363894206221
rradius 29.13449348893319
rwrist 2.5111435753042346
rhand -18.214801649654657 23.982752619957715
rfingers 7.1250199999999975
rthumb 8.062952581561982 -5.80288275735662
71
root 0.5125474727625734 17.65598258858092 39.375657565284314 -2.2702504596284228 -5.98387158405167 -4.494333060278972
lfemur -20.87604148720993 -2.816665261564199 -15.154499872041551
ltibia 27.77303664588888
lfoot -2.434802243059944 -0.71158378946128
ltoes 1.5419239557693412
rfemur 7.36081669202761 4.678979215604338 29.227420078498408
rtibia 44.025526675139105
rfoot -0.37572223237866087 1.7026692608629332
rtoes -0.5788796146334136
lowerback 8.887026327229211 3.129357304160705 5.035194999387318
upperback 0.3555568296712778 4.7088267075619195 1.226418278006835
thorax -4.509774143310136 2.2436599531058956 -1.7124352203386328
lowerneck -16.642320331693032 -3.2212311931048188 -1.6948427033519935
upperneck 20.717191316654326 -4.288985283545004 1.7136434904450175
head 9.305273362553827 -1.974483177981957 0.31189663052412675
lclavicle -1.696791391981571e-15 3.1799179900973727e-16
lhumerus -37.860851131046175 12.174334787807338 79.28507884718773
lradius 15.870261918055633
lwrist -1.6403562183306075
lhand -25.168664392607432 25.347506751772354
lfingers 7.1250199999999975
lthumb 1.3485901585217621 55.317870439246356
rclavicle -1.696791391981571e-15 3.1799179900973727e-16
rhumerus -24.050263897500933 -13.446972500342603 -81.35019296329423
rradius 29.0157991445587
rwrist 3.120063227405435
rhand -18.06287791458092 23.876438358734745
rfingers 7.1250199999999975
rthumb 8.20958853121518 -5.901344241452716
72
root 0.6182411680395424 17.722799309651286 40.31564990960506 -3.024056651059846 -6.019247330805965 -2.9135035003460583
lfemur -18.776853504154005 -2.4518914471178093 -18.185864153950334
ltibia 30.496742532117608
lfoot -4.207693814080031 -0.9675122430019008
ltoes 2.5911923861075903
rfemur 2.417503990831605 3.5446036775939938 26.33048659024883
rtibia 54.241345479051795
rfoot 8.461279269240817 1.087632396256856
rtoes 5.401328059270998
lowerback 9.173337457596 3.0677391902570794 3.5894040547517907
upperback 0.4299316287853217 4.470789942724756 0.8113165434478704
thorax -4.631579382805089 2.148967137831437 -1.3512805945469677
lowerneck -16.57190900544968 -3.1580526550209025 -1.8265421650045877
upperneck 20.74636648452108 -4.208387049463074 1.7750853814957064
head 9.313756283990964 -1.9363292837949861 0.3611523736381876
lclavicle -1.872246898357661e-15 2.0094629945682664e-16
lhumerus -37.83749158737542 11.468322035410402 79.53712372600368
lradius 16.523143303779626
lwrist 0.0056621374557561666
lhand -25.783489656084 25.04279393715776
lfingers 7.1250199999999975
lthumb 0.7547799406454915 55.007418177979666
rclavicle -1.872246898357661e-15 2.0094629945682664e-16
rhumerus -24.994837332143 -14.41159007543789 -81.23649196316666
rradius 28.65382956949113
rwrist 3.9027932712532567
rhand -17.807723802092443 23.65913182373966
rfingers 7.1250199999999975
rthumb 8.455843245212437 -6.093066563370036
73
root 0.6807797161289129 17.792777666150474 41.13658048161611 -3.6392077145567345 -6.114672005638608 -1.6360792169819212
lfemur -16.103530474665053 -2.543646444494679 -20.718404056539097
ltibia 30.761674887439693
lfoot -6.668273333077577 0.14110075764558871
ltoes 2.8701252582453844
rfemur -3.8914830881432767 2.22163171765013 23.96971883754638
rtibia 63.464340848815496
rfoot 11.557609191892483 -1.5248183693953825
rtoes 10.405291683831642
lowerback 9.498573141188562 2.8592694648238544 2.1916146228487956
upperback 0.578499650766645 4.047447285506106 0.519890761392112
thorax -4.722081484755681 1.9634316820465139 -0.9182742133289993
lowerneck -16.556890205684166 -2.99694558239609 -1.9717389303629322
upperneck 20.641456562285956 -3.98663597949923 1.7307238420663917
head 9.270382498018973 -1.8417680028253234 0.40362129430546734
lclavicle -2.2586798676190686e-15 -5.679775503073907e-17
lhumerus -37.15192157635739 9.988466108368609 80.22636012065507
lradius 17.49128841025477
lwrist 1.9052599575903408
lhand -27.10561724616041 23.63237054490266
lfingers 7.1250199999999975
lthumb -0.5220810361605027 53.59323698190805
rclavicle -2.2586798676190686e-15 -5.679775503073907e-17
rhumerus -25.685985503842122 -15.34257177960761 -81.11950933508727
rradius 28.035501411284645
rwrist 4.89831534604767
rhand -17.522624207803894 23.348635876623252
rfingers 7.1250199999999975
rthumb 8.731006802877697 -6.390197353483979
74
root 0.7154931894712918 17.848035793282776 41.94263844239013 -4.02981968637021 -5.8647326341738815 -0.7325058401682312
lfemur -12.836048124739861 -2.927920049143973 -22.54692800077224
ltibia 29.91226793535955
lfoot -8.822286863838967 1.4573037339007484
ltoes 2.6817420190208128
rfemur -10.482349638413588 0.8901798097327305 22.565779676622068
rtibia 69.4905103154129
rfoot 7.895154734506564 -4.271715200458933
rtoes 11.790655034945697
lowerback 9.746192958271749 2.437114101053992 1.0840520170669703
upperback 0.7447277329631682 3.366561803010835 0.4380719819520804
thorax -4.7543846582839775 1.6491670780721885 -0.36905090368968374
lowerneck -16.529353095426124 -2.813970009922606 -2.1357697126876363
upperneck 20.57899816381927 -3.7150154304400305 1.607095342765188
head 9.235122618693122 -1.7339373707351708 0.4348232268470593
lclavicle -2.502653377424363e-15 -2.1952246125817118e-16
lhumerus -35.568071175986724 8.126949863495225 80.99259127757452
lradius 18.440511535844674
lwrist 3.0460491184948397
lhand -28.24245592500519 21.86171397910198
lfingers 7.1250199999999975
lthumb -1.619967752693873 51.82057042082085
rclavicle -2.502653377424363e-15 -2.1952246125817118e-16
rhumerus -26.22259634454479 -16.2677015863936 -80.96653744414573
rradius 27.348536439424866
rwrist 5.823925289789928
rhand -17.27365378829792 22.990800277711106
rfingers 7.1250199999999975
rthumb 8.971286429031107 -6.72368568228736
